<?xml version="1.0" encoding="UTF-8"?><svg id="uuid-61403ff3-ca0c-497c-ac5a-ab3537f9df0d" xmlns="http://www.w3.org/2000/svg" viewBox="0 0 348.6 80.93"><path d="M0,54.46l5.47-.75c.15,3.5.8,5.9,1.97,7.19,1.17,1.29,2.78,1.94,4.84,1.94,1.52,0,2.83-.35,3.94-1.05,1.1-.7,1.86-1.65,2.28-2.84.42-1.2.62-3.11.62-5.73v-31.56h6.06v31.22c0,3.83-.46,6.8-1.39,8.91-.93,2.1-2.4,3.71-4.41,4.81-2.01,1.1-4.37,1.66-7.08,1.66-4.02,0-7.1-1.16-9.23-3.47C.95,62.46-.08,59.02,0,54.46Z"/><path d="M56.13,67.46v-4.88c-2.58,3.75-6.09,5.62-10.53,5.62-1.96,0-3.79-.38-5.48-1.12-1.7-.75-2.96-1.69-3.78-2.83-.82-1.14-1.4-2.53-1.73-4.17-.23-1.1-.34-2.85-.34-5.25v-20.56h5.62v18.41c0,2.94.11,4.92.34,5.94.35,1.48,1.1,2.64,2.25,3.48,1.15.84,2.56,1.27,4.25,1.27s3.27-.43,4.75-1.3c1.48-.86,2.53-2.04,3.14-3.53.61-1.49.92-3.65.92-6.48v-17.78h5.62v33.19h-5.03Z"/><path d="M69.97,67.46v-33.19h5.06v4.72c2.44-3.65,5.96-5.47,10.56-5.47,2,0,3.84.36,5.52,1.08,1.68.72,2.93,1.66,3.77,2.83.83,1.17,1.42,2.55,1.75,4.16.21,1.04.31,2.86.31,5.47v20.41h-5.62v-20.19c0-2.29-.22-4-.66-5.14s-1.21-2.04-2.33-2.72c-1.11-.68-2.42-1.02-3.92-1.02-2.4,0-4.46.76-6.2,2.28-1.74,1.52-2.61,4.41-2.61,8.66v18.12h-5.62Z"/><path d="M105.32,80.24l-.62-5.28c1.23.33,2.3.5,3.22.5,1.25,0,2.25-.21,3-.62.75-.42,1.36-1,1.84-1.75.35-.56.93-1.96,1.72-4.19.1-.31.27-.77.5-1.38l-12.59-33.25h6.06l6.91,19.22c.9,2.44,1.7,5,2.41,7.69.65-2.58,1.42-5.1,2.31-7.56l7.09-19.34h5.62l-12.62,33.75c-1.35,3.65-2.41,6.16-3.16,7.53-1,1.85-2.15,3.21-3.44,4.08-1.29.86-2.83,1.3-4.62,1.3-1.08,0-2.29-.23-3.62-.69Z"/><path d="M159.22,63.37c-2.08,1.77-4.09,3.02-6.02,3.75-1.93.73-4,1.09-6.2,1.09-3.65,0-6.45-.89-8.41-2.67-1.96-1.78-2.94-4.06-2.94-6.83,0-1.62.37-3.11,1.11-4.45.74-1.34,1.71-2.42,2.91-3.23,1.2-.81,2.55-1.43,4.05-1.84,1.1-.29,2.77-.57,5-.84,4.54-.54,7.88-1.19,10.03-1.94.02-.77.03-1.26.03-1.47,0-2.29-.53-3.91-1.59-4.84-1.44-1.27-3.57-1.91-6.41-1.91-2.65,0-4.6.46-5.86,1.39-1.26.93-2.19,2.57-2.8,4.92l-5.5-.75c.5-2.35,1.32-4.25,2.47-5.7,1.15-1.45,2.8-2.56,4.97-3.34,2.17-.78,4.68-1.17,7.53-1.17s5.13.33,6.91,1c1.77.67,3.07,1.5,3.91,2.52.83,1.01,1.42,2.29,1.75,3.83.19.96.28,2.69.28,5.19v7.5c0,5.23.12,8.54.36,9.92.24,1.39.71,2.71,1.42,3.98h-5.88c-.58-1.17-.96-2.53-1.12-4.09ZM158.75,50.8c-2.04.83-5.1,1.54-9.19,2.12-2.31.33-3.95.71-4.91,1.12-.96.42-1.7,1.03-2.22,1.83-.52.8-.78,1.69-.78,2.67,0,1.5.57,2.75,1.7,3.75,1.13,1,2.8,1.5,4.98,1.5s4.09-.47,5.78-1.42,2.93-2.25,3.72-3.89c.6-1.27.91-3.15.91-5.62v-2.06Z"/><path d="M171.6,44.87c0-5.42.56-9.78,1.67-13.08,1.11-3.3,2.77-5.85,4.97-7.64,2.2-1.79,4.96-2.69,8.3-2.69,2.46,0,4.61.5,6.47,1.48,1.85.99,3.38,2.42,4.59,4.28,1.21,1.86,2.16,4.14,2.84,6.81s1.03,6.29,1.03,10.83c0,5.38-.55,9.71-1.66,13.02-1.1,3.3-2.76,5.85-4.95,7.66-2.2,1.8-4.97,2.7-8.33,2.7-4.42,0-7.89-1.58-10.41-4.75-3.02-3.81-4.53-10.02-4.53-18.62ZM177.38,44.87c0,7.52.88,12.53,2.64,15.02,1.76,2.49,3.93,3.73,6.52,3.73s4.75-1.25,6.52-3.75c1.76-2.5,2.64-7.5,2.64-15s-.88-12.55-2.64-15.03c-1.76-2.48-3.95-3.72-6.58-3.72s-4.65,1.09-6.19,3.28c-1.94,2.79-2.91,7.95-2.91,15.47Z"/><path d="M207.19,44.87c0-5.42.56-9.78,1.67-13.08s2.77-5.85,4.97-7.64,4.96-2.69,8.3-2.69c2.46,0,4.62.5,6.47,1.48s3.38,2.42,4.59,4.28,2.16,4.14,2.84,6.81,1.03,6.29,1.03,10.83c0,5.38-.55,9.71-1.66,13.02s-2.76,5.85-4.95,7.66-4.97,2.7-8.33,2.7c-4.42,0-7.88-1.58-10.41-4.75-3.02-3.81-4.53-10.02-4.53-18.62ZM212.97,44.87c0,7.52.88,12.53,2.64,15.02s3.93,3.73,6.52,3.73,4.76-1.25,6.52-3.75,2.64-7.5,2.64-15-.88-12.55-2.64-15.03-3.95-3.72-6.58-3.72-4.65,1.09-6.19,3.28c-1.94,2.79-2.91,7.95-2.91,15.47Z"/><path d="M242.79,55.46l5.91-.5c.44,2.88,1.45,5.04,3.05,6.48s3.52,2.17,5.77,2.17c2.71,0,5-1.02,6.88-3.06s2.81-4.75,2.81-8.12-.9-5.74-2.7-7.59c-1.8-1.85-4.16-2.78-7.08-2.78-1.81,0-3.45.41-4.91,1.23-1.46.82-2.61,1.89-3.44,3.2l-5.28-.69,4.44-23.53h22.78v5.38h-18.28l-2.47,12.31c2.75-1.92,5.63-2.88,8.66-2.88,4,0,7.38,1.39,10.12,4.16s4.12,6.33,4.12,10.69-1.21,7.73-3.62,10.75c-2.94,3.71-6.95,5.56-12.03,5.56-4.17,0-7.57-1.17-10.2-3.5-2.64-2.33-4.14-5.43-4.52-9.28Z"/><path d="M69.19,27.72s7.61-16.69,47.46-16.69,47.46,16.69,47.46,16.69"/><polygon points="82.49 0 79.65 22.06 100.18 13.49 82.49 0"/><polygon points="150.71 .57 153.55 22.63 133.03 14.06 150.71 .57"/><path d="M281.46,67.46s40.1,6.8,58.88-24.67,1.52-29.9-12.18-8.54c-16.27,25.35-46.7,16.15-46.7,16.15"/></svg>